<?xml version="1.0" standalone="no"?><svg xmlns="http://www.w3.org/2000/svg" viewBox="0 0 1440 320"><path fill="#ffffff" fill-opacity="1" d="M0,224L21.8,202.7C43.6,181,87,139,131,128C174.5,117,218,139,262,170.7C305.5,203,349,245,393,250.7C436.4,256,480,224,524,192C567.3,160,611,128,655,101.3C698.2,75,742,53,785,85.3C829.1,117,873,203,916,245.3C960,288,1004,288,1047,272C1090.9,256,1135,224,1178,197.3C1221.8,171,1265,149,1309,160C1352.7,171,1396,213,1418,234.7L1440,256L1440,320L1418.2,320C1396.4,320,1353,320,1309,320C1265.5,320,1222,320,1178,320C1134.5,320,1091,320,1047,320C1003.6,320,960,320,916,320C872.7,320,829,320,785,320C741.8,320,698,320,655,320C610.9,320,567,320,524,320C480,320,436,320,393,320C349.1,320,305,320,262,320C218.2,320,175,320,131,320C87.3,320,44,320,22,320L0,320Z"></path></svg>