<?xml version="1.0" standalone="no"?><svg xmlns="http://www.w3.org/2000/svg" viewBox="0 0 1440 320"><path fill="#ffffff" fill-opacity="1" d="M0,64L30,85.3C60,107,120,149,180,186.7C240,224,300,256,360,277.3C420,299,480,309,540,272C600,235,660,149,720,149.3C780,149,840,235,900,277.3C960,320,1020,320,1080,282.7C1140,245,1200,171,1260,138.7C1320,107,1380,117,1410,122.7L1440,128L1440,320L1410,320C1380,320,1320,320,1260,320C1200,320,1140,320,1080,320C1020,320,960,320,900,320C840,320,780,320,720,320C660,320,600,320,540,320C480,320,420,320,360,320C300,320,240,320,180,320C120,320,60,320,30,320L0,320Z"></path></svg>